<svg xmlns="http://www.w3.org/2000/svg" viewBox="34 3 32 95">
  <defs>
    <linearGradient id="grad_blue" x1="0%" y1="0%" x2="0%" y2="100%">
      <stop offset="0%" style="stop-color:#0EA5E9" />
      <stop offset="100%" style="stop-color:#0284C7" />
    </linearGradient>
  </defs>

  <g stroke-linecap="round" fill="none" stroke-width="5.5">
    <path d="M42 15 C42 35, 58 45, 58 60 C58 70, 42 85, 42 85" stroke="#22D3EE">
      <animate attributeName="stroke-dasharray" values="0,200; 200,0" dur="2.5s" repeatCount="indefinite" />
    </path>
    <path d="M58 15 C58 35, 42 45, 42 60 C42 70, 58 85, 58 85" stroke="#475569">
      <animate attributeName="stroke-dasharray" values="0,200; 200,0" dur="2.5s" repeatCount="indefinite" />
    </path>
    <path d="M50 15 C55 30, 45 40, 50 50 C55 60, 45 70, 50 85" stroke="url(#grad_blue)">
      <animate attributeName="stroke-dasharray" values="0,200; 200,0" dur="2s" repeatCount="indefinite" />
    </path>
  </g>

  <g fill="#1F2937">
    <rect x="38" y="5" width="24" height="18" rx="2.5"/>
    <circle cx="45" cy="14" r="2.2" fill="#FFFFFF">
      <animate attributeName="opacity" values="1;0.2;1" dur="1.2s" repeatCount="indefinite" />
    </circle>
    <circle cx="55" cy="14" r="2.2" fill="#FFFFFF">
      <animate attributeName="opacity" values="1;0.2;1" dur="1.2s" repeatCount="indefinite" />
    </circle>
    <rect x="38" y="77" width="24" height="18" rx="2.5"/>
    <circle cx="45" cy="86" r="2.2" fill="#FFFFFF">
      <animate attributeName="opacity" values="1;0.2;1" dur="1.2s" repeatCount="indefinite" begin="0.6s" />
    </circle>
    <circle cx="55" cy="86" r="2.2" fill="#FFFFFF">
      <animate attributeName="opacity" values="1;0.2;1" dur="1.2s" repeatCount="indefinite" begin="0.6s" />
    </circle>
  </g>
</svg>
